<?xml version="1.0" encoding="UTF-8" standalone="no"?>

<svg
   width="17.194748mm"
   height="12.964329mm"
   viewBox="0 0 17.194748 12.964329"
   version="1.1"
   id="svg5"
   xml:space="preserve"
   xmlns:inkscape="http://www.inkscape.org/namespaces/inkscape"
   xmlns:sodipodi="http://sodipodi.sourceforge.net/DTD/sodipodi-0.dtd"
   xmlns="http://www.w3.org/2000/svg"
   xmlns:svg="http://www.w3.org/2000/svg"><sodipodi:namedview
     id="namedview7"
     pagecolor="#ffffff"
     bordercolor="#999999"
     borderopacity="1"
     inkscape:showpageshadow="0"
     inkscape:pageopacity="0"
     inkscape:pagecheckerboard="0"
     inkscape:deskcolor="#d1d1d1"
     inkscape:document-units="mm"
     showgrid="false" /><defs
     id="defs2" /><g
     inkscape:label="Camada 1"
     inkscape:groupmode="layer"
     id="layer1"
     transform="translate(-152.80625,-62.834864)"><g
       id="g3643"
       transform="translate(2.2006744,-1.9089764)"><path
         style="fill:#000000;stroke-width:1"
         d="m 152.19353,77.245047 c -1.4323,-0.718367 -1.58291,-1.28447 -1.58728,-5.965854 -0.006,-6.622146 -0.1204,-6.535298 8.59506,-6.535298 8.70392,0 8.59895,-0.07913 8.59895,6.482292 0,6.567537 0.1136,6.482479 -8.6566,6.481881 -5.21008,-3.44e-4 -6.15289,-0.06317 -6.95013,-0.463021 z m 5.06274,-0.98739 c -0.44507,-0.50691 -0.9525,-1.399879 -1.12762,-1.984375 l -0.3184,-1.06272 h -2.32375 c -1.27807,0 -2.37723,0.0893 -2.44258,0.198437 -0.0654,0.109141 -0.0284,0.786032 0.0822,1.504202 0.30769,1.998906 0.79858,2.266111 4.1632,2.266111 h 2.77622 z m 3.25404,0.09619 c 1.26646,-1.505108 1.54292,-2.30137 1.36009,-3.917395 -0.0922,-0.814537 -0.0904,-1.86655 0.004,-2.337807 l 0.17137,-0.85683 h 2.57968 2.57969 l 0.16204,-0.810204 c 0.19803,-0.990132 -0.37976,-2.479479 -1.11443,-2.872667 -0.2938,-0.157234 -1.73824,-0.28588 -3.20987,-0.28588 h -2.6757 l 0.85042,1.058231 c 0.46773,0.582027 0.7547,1.147574 0.63771,1.256771 -0.117,0.109197 -0.26972,0.03817 -0.33938,-0.157829 -0.28618,-0.805171 -1.73675,-2.157173 -2.31443,-2.157173 -0.63809,0 -2.11533,1.464309 -2.49868,2.476789 -0.35787,0.945209 -0.24867,6.302787 0.14437,7.082639 0.64086,1.271579 1.71953,2.346823 2.35431,2.346823 0.36312,0 0.8985,-0.337614 1.309,-0.825468 z m -1.57359,-10.287033 c -0.0899,-0.145521 -0.0374,-0.264583 0.11668,-0.264583 0.15411,0 0.2802,0.119062 0.2802,0.264583 0,0.145521 -0.0525,0.264584 -0.11668,0.264584 -0.0642,0 -0.19026,-0.119063 -0.2802,-0.264584 z m 7.68495,10.463069 c 0.51789,-0.517898 0.64943,-0.919805 0.64943,-1.984375 v -1.334943 h -2.36882 -2.36881 l -0.26771,0.969556 c -0.14724,0.533257 -0.63469,1.426225 -1.08324,1.984376 l -0.81553,1.014818 h 2.80262 c 2.62285,0 2.84428,-0.04166 3.45206,-0.649432 z M 156.02631,71.22619 v -1.5875 h -2.51355 -2.51354 l -0.0846,1.033112 c -0.0465,0.568212 -0.0134,1.316776 0.0737,1.663475 0.15419,0.614346 0.22021,0.628433 2.5981,0.554388 l 2.43989,-0.07597 z m 11.24479,-0.0099 v -1.729721 l -2.4474,0.07608 -2.44739,0.07608 -0.082,1.289298 c -0.12768,2.008231 -0.11516,2.017993 2.58721,2.017993 h 2.38956 z m -11.24255,-2.77841 c 0.0971,-0.44218 0.58204,-1.335149 1.07761,-1.984375 l 0.90103,-1.180412 h -2.76163 c -2.48451,0 -2.83037,0.05974 -3.44677,0.595313 -0.40895,0.355329 -0.74807,0.990624 -0.84124,1.575941 -0.26999,1.696034 -0.12741,1.797497 2.52589,1.797497 h 2.36853 z"
         id="path880" /><path
         style="opacity:0.584348;fill:#f7cf7f;fill-opacity:1;stroke:none;stroke-width:0.755905;stroke-linecap:round;stroke-miterlimit:7"
         d="m 580.13338,291.38531 c -0.57272,-0.0499 -1.88116,-0.27038 -2.90766,-0.48997 -3.93883,-0.8426 -5.24726,-2.79388 -6.06696,-9.04771 -0.39972,-3.04962 -0.3519,-4.25329 0.17704,-4.45626 0.73188,-0.28085 7.96313,-0.65226 12.8406,-0.65952 l 4.56368,-0.007 0.95278,3.05882 c 1.04993,3.37071 2.72497,6.44294 4.81426,8.8299 0.68515,0.78277 1.52433,1.7667 1.86483,2.1865 l 0.61909,0.76329 -7.90818,-0.0438 c -4.3495,-0.0241 -8.37677,-0.0846 -8.94948,-0.13448 z"
         id="path1612"
         transform="scale(0.26458333)" /><path
         style="opacity:0.584348;fill:#f7cf70;fill-opacity:1;stroke:none;stroke-width:0.755905;stroke-linecap:round;stroke-miterlimit:7"
         d="m 571.93315,275.08695 c -1.05815,-0.53459 -1.38454,-1.95119 -1.39196,-6.04147 -0.004,-2.0045 0.0791,-4.08385 0.18382,-4.62076 l 0.19044,-0.97622 h 9.35989 9.35989 v 5.81605 5.81605 l -5.1182,0.17142 c -7.87103,0.2636 -11.83839,0.21157 -12.58388,-0.16507 z"
         id="path3626"
         transform="scale(0.26458333)" /><path
         style="opacity:0.584348;fill:#f7cf70;fill-opacity:1;stroke:none;stroke-width:0.755905;stroke-linecap:round;stroke-miterlimit:7"
         d="m 574.01575,261.36435 c -1.86631,-0.25787 -2.71614,-0.61108 -3.22779,-1.34156 -0.8606,-1.22868 -0.26922,-5.88315 1.05712,-8.32007 0.39424,-0.72434 1.34341,-1.88967 2.10927,-2.58963 2.24904,-2.05549 2.58894,-2.11206 13.57897,-2.2598 l 9.48255,-0.12747 -1.69218,2.17863 c -3.63288,4.67722 -5.17534,7.43546 -5.91761,10.58188 l -0.4741,2.00973 -6.74222,0.0331 c -3.70823,0.0182 -7.38653,-0.056 -8.17401,-0.16477 z"
         id="path3628"
         transform="scale(0.26458333)" /><path
         style="opacity:0.584348;fill:#f7cf70;fill-opacity:1;stroke:none;stroke-width:0.755905;stroke-linecap:round;stroke-miterlimit:7"
         d="m 600.05945,290.98885 c -2.60825,-1.29103 -6.98331,-6.88732 -7.53916,-9.6436 -0.55012,-2.72788 -0.831,-7.49561 -0.83963,-14.25221 -0.01,-7.58026 0.23762,-10.05875 1.19145,-11.94103 1.53309,-3.02542 5.56153,-7.1194 7.87797,-8.00615 1.05138,-0.40247 1.13927,-0.39546 2.34292,0.18696 1.75268,0.84807 5.4877,4.52796 6.70028,6.60138 0.99091,1.69438 1.797,2.19677 2.13045,1.3278 0.2271,-0.59179 -1.28425,-3.1696 -3.44214,-5.87103 l -1.97549,-2.47308 5.81734,-0.0778 c 5.96993,-0.0798 12.43921,0.24691 14.76484,0.74567 2.24314,0.48107 4.14533,2.95948 5.10797,6.6553 0.57045,2.19013 0.52668,3.31175 -0.26534,6.79941 l -0.13302,0.58573 h -9.73564 -9.73564 l -0.34523,1.3667 c -0.24921,0.98662 -0.34571,3.58116 -0.34697,9.3294 l -0.002,7.9627 -1.22362,2.45029 c -1.98964,3.98419 -5.2714,7.68772 -7.57928,8.55336 -1.04643,0.3925 -1.46262,0.34746 -2.7703,-0.29983 z m 2.22563,-40.95045 c 0.20229,-0.80597 -0.26916,-1.4284 -1.08192,-1.4284 -0.83862,0 -0.98477,0.37219 -0.50809,1.29397 0.51022,0.98667 1.35812,1.05835 1.59001,0.13443 z"
         id="path3630"
         transform="scale(0.26458333)" /><path
         style="opacity:0.584348;fill:#f7cf70;fill-opacity:1;stroke:none;stroke-width:0.755905;stroke-linecap:round;stroke-miterlimit:7"
         d="m 617.61178,275.42555 c -2.23954,-0.19643 -2.82622,-0.40748 -3.63912,-1.30915 -0.46454,-0.51527 -0.51344,-0.91223 -0.4759,-3.8639 0.023,-1.80929 0.11932,-4.12241 0.21402,-5.14027 l 0.17218,-1.85066 7.98621,-0.17587 c 4.39241,-0.0967 8.48408,-0.2437 9.09259,-0.32659 l 1.10638,-0.1507 v 6.53767 6.53767 l -6.18271,-0.0374 c -3.40049,-0.0206 -7.12363,-0.11993 -8.27365,-0.22079 z"
         id="path3632"
         transform="scale(0.26458333)" /><path
         style="opacity:0.584348;fill:#f7cf70;fill-opacity:1;stroke:none;stroke-width:0.755905;stroke-linecap:round;stroke-miterlimit:7"
         d="m 607.05894,290.84766 c 0.29594,-0.39374 1.30185,-1.71163 2.23536,-2.92865 2.0391,-2.6584 3.79256,-6.12408 4.57695,-9.04628 l 0.57649,-2.14768 h 8.83645 8.83644 l -0.0992,4.36044 c -0.0847,3.72322 -0.17812,4.53356 -0.63949,5.54512 -1.21323,2.66006 -3.32588,4.2421 -6.22426,4.66098 -0.99576,0.14391 -5.59641,0.26397 -10.22366,0.26681 l -8.4132,0.005 z"
         id="path3634"
         transform="scale(0.26458333)" /></g></g></svg>
